<?xml version="1.0" encoding="UTF-8" standalone="no"?>
<!-- Created with Inkscape (http://www.inkscape.org/) -->

<svg
   width="10mm"
   height="10mm"
   viewBox="0 0 10 10"
   version="1.1"
   id="svg5"
   xml:space="preserve"
   inkscape:version="1.2.2 (732a01da63, 2022-12-09)"
   sodipodi:docname="oauth2-client.svg"
   xmlns:inkscape="http://www.inkscape.org/namespaces/inkscape"
   xmlns:sodipodi="http://sodipodi.sourceforge.net/DTD/sodipodi-0.dtd"
   xmlns:xlink="http://www.w3.org/1999/xlink"
   xmlns="http://www.w3.org/2000/svg"
   xmlns:svg="http://www.w3.org/2000/svg"><sodipodi:namedview
     id="namedview7"
     pagecolor="#ffffff"
     bordercolor="#000000"
     borderopacity="0.25"
     inkscape:pageshadow="2"
     inkscape:pageopacity="0.0"
     inkscape:pagecheckerboard="0"
     inkscape:deskcolor="#d1d1d1"
     inkscape:document-units="mm"
     showgrid="false"
     inkscape:zoom="11.350552"
     inkscape:cx="-8.2815356"
     inkscape:cy="29.998541"
     inkscape:window-width="1862"
     inkscape:window-height="1000"
     inkscape:window-x="689"
     inkscape:window-y="0"
     inkscape:window-maximized="0"
     inkscape:current-layer="layer1"
     inkscape:showpageshadow="2" /><defs
     id="defs2"><linearGradient
       inkscape:collect="always"
       id="linearGradient3083"><stop
         style="stop-color:#c9c9c9;stop-opacity:1;"
         offset="0"
         id="stop3079" /><stop
         style="stop-color:#333333;stop-opacity:1;"
         offset="0.18116444"
         id="stop3087" /><stop
         style="stop-color:#333333;stop-opacity:1;"
         offset="0.87130558"
         id="stop3089" /><stop
         style="stop-color:#ffffff;stop-opacity:1;"
         offset="1"
         id="stop3081" /></linearGradient><linearGradient
       inkscape:collect="always"
       id="linearGradient3057"><stop
         style="stop-color:#bebebe;stop-opacity:1;"
         offset="0"
         id="stop3053" /><stop
         style="stop-color:#333333;stop-opacity:1;"
         offset="0.16069606"
         id="stop3061" /><stop
         style="stop-color:#373737;stop-opacity:1;"
         offset="0.8839196"
         id="stop3063" /><stop
         style="stop-color:#d0d0d0;stop-opacity:1;"
         offset="1"
         id="stop3055" /></linearGradient><linearGradient
       inkscape:collect="always"
       xlink:href="#linearGradient3057"
       id="linearGradient3059"
       x1="8.4833727"
       y1="8.4639101"
       x2="1.3461144"
       y2="1.0139604"
       gradientUnits="userSpaceOnUse" /><linearGradient
       inkscape:collect="always"
       xlink:href="#linearGradient3083"
       id="linearGradient3085"
       x1="7.6042767"
       y1="7.7752566"
       x2="2.102428"
       y2="2.1580274"
       gradientUnits="userSpaceOnUse" /></defs><g
     inkscape:label="Capa 1"
     inkscape:groupmode="layer"
     id="layer1"><circle
       style="fill:url(#linearGradient3059);stroke:none;stroke-width:0.03;stroke-linecap:round;fill-opacity:1"
       id="path2476"
       r="5"
       cy="5"
       cx="4.8776379" /><circle
       style="fill:#ececec;stroke:none;stroke-width:0.15;stroke-linecap:round;stroke-dasharray:none"
       id="path2476-1"
       cx="4.8776379"
       cy="5"
       r="4.75" /><path
       id="path2476-1-0"
       style="fill:#333333;stroke:none;stroke-width:0.15;stroke-linecap:round;stroke-dasharray:none"
       d="M 4.8776379,3.6759522 A 6.2661052,3.767354 0 0 0 0.12857378,4.9890503 4.75,4.75 0 0 0 0.12805698,4.9999023 4.75,4.75 0 0 0 4.8776379,9.75 4.75,4.75 0 0 0 9.6277356,4.9999023 a 4.75,4.75 0 0 0 0,-0.013436 6.2661052,3.767354 0 0 0 -4.7500977,-1.3105141 z" /><circle
       style="fill:url(#linearGradient3085);stroke:none;stroke-width:0.03;stroke-linecap:round;fill-opacity:1"
       id="path2476-5"
       cx="4.8776379"
       cy="5"
       r="3.5" /><circle
       style="fill:#1a1a1a;stroke:none;stroke-width:0.03;stroke-linecap:round"
       id="path2476-8"
       cx="4.8776379"
       cy="5"
       r="3.25" /><g
       id="g2858"
       transform="translate(12.252629,-8.0837195)"
       style="stroke:#f2f2f2"><path
         style="fill:#ececec;stroke:#f2f2f2;stroke-width:0.03;stroke-linecap:round"
         d="m -10.186086,12.15083 1.8295887,-1.829589"
         id="path2598"
         sodipodi:nodetypes="cc" /><path
         style="fill:#ececec;stroke:#f2f2f2;stroke-width:0.03;stroke-linecap:round"
         d="m -10.179155,12.82222 2.5381751,-2.538175"
         id="path2598-8"
         sodipodi:nodetypes="cc" /><path
         style="fill:#ececec;stroke:#f2f2f2;stroke-width:0.03;stroke-linecap:round"
         d="m -10.135201,13.456587 3.1998401,-3.19984"
         id="path2598-8-0"
         sodipodi:nodetypes="cc" /><path
         style="fill:#ececec;stroke:#f2f2f2;stroke-width:0.0299999;stroke-linecap:round"
         d="m -10.090777,14.090484 3.7893127,-3.789313"
         id="path2598-8-0-5"
         sodipodi:nodetypes="cc" /><path
         style="fill:#ececec;stroke:#f2f2f2;stroke-width:0.0299999;stroke-linecap:round"
         d="m -9.7516165,14.429644 3.7893126,-3.789312"
         id="path2598-8-0-5-4"
         sodipodi:nodetypes="cc" /><path
         style="fill:#ececec;stroke:#f2f2f2;stroke-width:0.0299999;stroke-linecap:round"
         d="m -9.4699854,14.826334 3.8466812,-3.846681"
         id="path2598-8-0-5-4-4"
         sodipodi:nodetypes="cc" /><path
         style="fill:#ececec;stroke:#f2f2f2;stroke-width:0.03;stroke-linecap:round"
         d="m -4.5680429,13.994317 -1.8295886,1.829588"
         id="path2598-4"
         sodipodi:nodetypes="cc" /><path
         style="fill:#ececec;stroke:#f2f2f2;stroke-width:0.03;stroke-linecap:round"
         d="m -4.5749733,13.322926 -2.6054802,2.60548"
         id="path2598-8-1"
         sodipodi:nodetypes="cc" /><path
         style="fill:#ececec;stroke:#f2f2f2;stroke-width:0.03;stroke-linecap:round"
         d="m -4.6189284,12.68856 -3.19984,3.19984"
         id="path2598-8-0-0"
         sodipodi:nodetypes="cc" /><path
         style="fill:#ececec;stroke:#f2f2f2;stroke-width:0.0299999;stroke-linecap:round"
         d="m -4.6633524,12.054663 -3.7893124,3.789313"
         id="path2598-8-0-5-3"
         sodipodi:nodetypes="cc" /><path
         style="fill:#ececec;stroke:#f2f2f2;stroke-width:0.0299999;stroke-linecap:round"
         d="m -5.0025128,11.715503 -3.7893124,3.789312"
         id="path2598-8-0-5-4-3"
         sodipodi:nodetypes="cc" /><path
         style="fill:#ececec;stroke:#f2f2f2;stroke-width:0.0299999;stroke-linecap:round"
         d="m -5.2841437,11.318813 -3.8466814,3.846681"
         id="path2598-8-0-5-4-4-0"
         sodipodi:nodetypes="cc" /><path
         style="fill:#ececec;stroke:#f2f2f2;stroke-width:0.03;stroke-linecap:round"
         d="M -8.2986024,15.857076 -10.128191,14.027488"
         id="path2598-44"
         sodipodi:nodetypes="cc" /><path
         style="fill:#ececec;stroke:#f2f2f2;stroke-width:0.03;stroke-linecap:round"
         d="M -7.6272121,15.850146 -10.131607,13.34575"
         id="path2598-8-15"
         sodipodi:nodetypes="cc" /><path
         style="fill:#ececec;stroke:#f2f2f2;stroke-width:0.03;stroke-linecap:round"
         d="m -6.9928451,15.806191 -3.1998399,-3.19984"
         id="path2598-8-0-8"
         sodipodi:nodetypes="cc" /><path
         style="fill:#ececec;stroke:#f2f2f2;stroke-width:0.0299999;stroke-linecap:round"
         d="M -6.3589484,15.761767 -10.148261,11.972455"
         id="path2598-8-0-5-6"
         sodipodi:nodetypes="cc" /><path
         style="fill:#ececec;stroke:#f2f2f2;stroke-width:0.0299999;stroke-linecap:round"
         d="M -6.019788,15.422607 -9.8091006,11.633294"
         id="path2598-8-0-5-4-9"
         sodipodi:nodetypes="cc" /><path
         style="fill:#ececec;stroke:#f2f2f2;stroke-width:0.0299999;stroke-linecap:round"
         d="M -5.6230981,15.140976 -9.4697796,11.294295"
         id="path2598-8-0-5-4-4-6"
         sodipodi:nodetypes="cc" /><path
         style="fill:#ececec;stroke:#f2f2f2;stroke-width:0.03;stroke-linecap:round"
         d="m -6.4551157,10.239033 1.8295888,1.829589"
         id="path2598-4-8"
         sodipodi:nodetypes="cc" /><path
         style="fill:#ececec;stroke:#f2f2f2;stroke-width:0.03;stroke-linecap:round"
         d="m -7.1265058,10.245964 2.5692077,2.569208"
         id="path2598-8-1-3"
         sodipodi:nodetypes="cc" /><path
         style="fill:#ececec;stroke:#f2f2f2;stroke-width:0.03;stroke-linecap:round"
         d="m -7.7608725,10.289919 3.1998401,3.19984"
         id="path2598-8-0-0-1"
         sodipodi:nodetypes="cc" /><path
         style="fill:#ececec;stroke:#f2f2f2;stroke-width:0.0299999;stroke-linecap:round"
         d="m -8.394769,10.334343 3.7893126,3.789312"
         id="path2598-8-0-5-3-8"
         sodipodi:nodetypes="cc" /><path
         style="fill:#ececec;stroke:#f2f2f2;stroke-width:0.0299999;stroke-linecap:round"
         d="m -8.7339294,10.673503 3.7893126,3.789313"
         id="path2598-8-0-5-4-3-8"
         sodipodi:nodetypes="cc" /><path
         style="fill:#ececec;stroke:#f2f2f2;stroke-width:0.0299999;stroke-linecap:round"
         d="m -9.1306192,10.955134 3.8466815,3.846682"
         id="path2598-8-0-5-4-4-0-1"
         sodipodi:nodetypes="cc" /></g><g
       aria-label="2"
       transform="scale(1.001286,0.99871565)"
       id="text2941"
       style="font-weight:bold;font-size:6.19799px;font-family:Arial;-inkscape-font-specification:'Arial Bold';text-align:center;text-anchor:middle;fill:#ffffff;stroke:#1a1a1a;stroke-width:0.15;stroke-linecap:round"><path
         d="M 6.4556739,6.0885612 6.3860675,6.9117317 H 3.2870726 V 6.1097457 Q 3.4383907,5.994744 3.7864223,5.7496086 4.6368301,5.1443362 5.0242045,4.7539354 5.4115789,4.3605083 5.4115789,4.0336612 q 0,-0.2390826 -0.1543445,-0.3934271 -0.1543445,-0.1573708 -0.4146116,-0.1573708 -0.6052725,0 -0.7021161,0.7898805 L 3.2870726,4.082083 Q 3.574577,2.7171936 4.8819655,2.7171936 q 0.7323797,0 1.1227804,0.384348 0.3934271,0.384348 0.3934271,0.9169878 0,0.5507979 -0.4115853,0.9835677 -0.4085589,0.4327698 -1.5071284,1.0864641 z"
         style="font-family:'Franklin Gothic Demi';-inkscape-font-specification:'Franklin Gothic Demi Bold'"
         id="path5028" /></g><g
       aria-label="OAUTH"
       transform="translate(9.761388,-0.15310499)"
       id="text2941-3"
       style="font-weight:bold;font-size:1.05833px;line-height:4;font-family:'Berlin Sans FB Demi';-inkscape-font-specification:'Berlin Sans FB Demi Bold';text-align:center;letter-spacing:0.529167px;text-anchor:middle;fill:#333333;stroke-width:0.15;stroke-linecap:round"><path
         d="m -7.2664178,1.6746566 q 0.099039,0.1272253 0.084871,0.2764349 -0.014847,0.1517027 -0.1416647,0.2504247 -0.1260021,0.098087 -0.2777536,0.074765 -0.1485333,-0.022553 -0.2469379,-0.1489632 -0.098722,-0.1268176 -0.084463,-0.2767524 0.014303,-0.1532435 0.1403046,-0.2513306 0.1251865,-0.097452 0.2776633,-0.074039 0.1498934,0.023459 0.2479805,0.1494614 z m -0.155181,0.1194919 q -0.047615,-0.061166 -0.1180531,-0.075096 -0.073656,-0.014699 -0.1340068,0.032281 -0.057496,0.044758 -0.06127,0.1223529 -0.00382,0.075011 0.041572,0.133323 0.048567,0.062389 0.1172375,0.075731 0.072296,0.013793 0.13387,-0.03414 0.057496,-0.044758 0.061996,-0.1222626 0.00405,-0.073878 -0.041345,-0.13219 z"
         id="path5031" /><path
         d="m -5.8536592,1.4653967 q 0.00285,0.00885 -0.00833,0.01626 -0.013486,0.00869 -0.090212,0.033428 -0.070332,0.022675 -0.091766,0.025242 -0.017832,0.00195 -0.028284,-0.015314 -0.039556,-0.065433 -0.050486,-0.067338 -0.00898,-9.058e-4 -0.1329214,0.039053 -0.083612,0.026956 -0.087595,0.033127 -0.00582,0.010565 -0.00172,0.058652 0.00382,0.043835 -0.00835,0.051559 -0.015454,0.00933 -0.1108695,0.040088 -0.075251,0.024261 -0.079849,0.01 -0.00412,-0.012788 0.00983,-0.3501178 0.01537,-0.36493453 0.015233,-0.40072545 -1.236e-4,-0.0205925 0.00775,-0.0231296 0.01328,-0.004281 0.041615,-0.0107019 0.028827,-0.006579 0.042599,-0.011019 0.013279,-0.004281 0.038379,-0.0140023 0.025433,-0.0103714 0.038221,-0.0144941 0.00934,-0.003013 0.022447,0.0106807 0.040749,0.0438728 0.2548324,0.30877022 0.2152091,0.2667062 0.2194904,0.2799857 z M -6.3468234,1.1297599 q -0.00335,0.024971 -0.00463,0.1051985 -0.00182,0.085289 0.00246,0.098568 0.00285,0.00885 0.032681,3.227e-4 0.015564,-0.00393 0.050484,-0.01519 0.032461,-0.010465 0.033367,-0.019445 1.908e-4,-0.00278 -0.00124,-0.0072 -0.00523,-0.016231 -0.051483,-0.08222 -0.044966,-0.063688 -0.061637,-0.080032 z"
         id="path5033" /><path
         d="m -4.6528236,1.1428824 q -1.424e-4,0.1317745 -0.031717,0.1797993 -0.057972,0.087787 -0.2889652,0.087537 -0.104386,-1.129e-4 -0.1606958,-0.016193 -0.089889,-0.025935 -0.1166816,-0.098828 -0.013397,-0.035671 -0.013298,-0.1271381 2.29e-5,-0.021187 0.00162,-0.063043 0.0016,-0.041856 0.00162,-0.062527 6.48e-5,-0.0599444 -0.00549,-0.17983948 -0.00555,-0.11989502 -0.00549,-0.1793227 1.34e-5,-0.0124023 0.010866,-0.0123906 0.031523,3.408e-5 0.095081,0.002687 0.064076,0.002653 0.095598,0.002687 0.012919,1.397e-5 0.012907,0.0113827 -7.38e-5,0.0682126 -0.00487,0.20463289 -0.00428,0.13590403 -0.00435,0.20411673 -8.78e-5,0.081132 0.016935,0.109572 0.022696,0.038782 0.095042,0.03886 0.1059363,1.146e-4 0.1060474,-0.1027212 8.11e-5,-0.074931 -0.00337,-0.22479553 -0.00346,-0.14986502 -0.00337,-0.22479557 1.74e-5,-0.0160196 0.012936,-0.0160057 0.030489,3.296e-5 0.091986,-0.002484 0.061498,-0.002517 0.091986,-0.002484 0.014986,1.62e-5 0.014973,0.0124185 -6.42e-5,0.0594277 -0.00536,0.17931097 -0.00478,0.11988385 -0.00485,0.17982831 -1.78e-5,0.016536 4.626e-4,0.050126 4.81e-4,0.033073 4.631e-4,0.04961 z"
         id="path5035" /><path
         d="m -3.3810929,1.1055356 q -0.00304,0.00988 -0.013903,0.00654 -0.018771,-0.00577 -0.1464093,-0.053093 -0.041362,0.1240645 -0.056539,0.1734618 -0.017909,0.058289 -0.049433,0.1767263 -0.03103,0.1185893 -0.048939,0.1768781 -0.00288,0.00939 -0.00809,0.01049 -0.00179,5.326e-4 -0.01459,-0.00178 -0.030852,-0.00515 -0.088153,-0.02276 -0.063722,-0.019578 -0.088195,-0.031422 -0.013072,-0.00672 -0.00913,-0.019563 0.017909,-0.058289 0.058667,-0.1733487 0.040758,-0.1150599 0.058667,-0.1733487 0.011838,-0.03853 0.048865,-0.1731168 -0.10183,-0.0204747 -0.1606128,-0.0385355 -0.0079,-0.002428 -0.00639,-0.007368 0.00197,-0.006422 0.018602,-0.0359111 0.018527,-0.0321498 0.021792,-0.0392558 0.00862,-0.0227614 0.017724,-0.045371 0.014841,-0.0359856 0.023238,-0.0334055 9.88e-4,3.0355e-4 0.00676,0.002619 0.076836,0.0349604 0.2334258,0.0830718 0.044458,0.0136594 0.1668827,0.0410025 0.065734,0.0147905 0.066228,0.0149423 0.00988,0.003035 0.010906,0.004973 0.00118,0.001443 -9.078e-4,0.009993 -0.0041,0.0133373 -0.012371,0.0367444 -0.00903,0.0258771 -0.012371,0.0367445 -0.00379,0.012349 -0.00827,0.037465 -0.00383,0.024773 -0.00747,0.036628 z"
         id="path5037" /><path
         d="m -2.4447924,2.2911942 q -0.00638,0.00878 -0.011661,0.00814 -0.00258,3.9e-5 -0.013224,-0.00642 -0.027323,-0.016022 -0.073726,-0.049742 -0.065633,-0.047694 -0.075515,-0.058708 -0.00946,-0.01071 -0.00309,-0.019489 0.023999,-0.033025 0.074923,-0.09695 0.051646,-0.064039 0.075645,-0.097064 0.011848,-0.016304 0.00447,-0.025495 -0.011783,-0.013673 -0.098736,-0.07686 -0.087371,-0.06349 -0.1044328,-0.070779 -0.010716,-0.00459 -0.022867,0.012129 -0.023695,0.032607 -0.068995,0.099341 -0.044996,0.066316 -0.068691,0.098923 -0.00911,0.012541 -0.02192,0.00643 -0.0152,-0.00721 -0.080415,-0.054603 -0.056436,-0.041011 -0.070081,-0.054759 -0.010604,-0.0109 -0.00271,-0.021769 0.032808,-0.045149 0.1032134,-0.1332443 0.070823,-0.087792 0.1039352,-0.1333586 0.035239,-0.048493 0.1015357,-0.1485169 0.066601,-0.1004419 0.1018395,-0.1489349 0.00668,-0.0092 0.015462,-0.00282 0.012959,0.00942 0.037967,0.029506 0.025425,0.020392 0.038385,0.02981 0.013377,0.00972 0.041044,0.027909 0.028084,0.018492 0.041462,0.028213 0.00711,0.00516 0.00164,0.012689 -0.022784,0.031353 -0.072949,0.090718 -0.049862,0.058947 -0.072646,0.0903 -0.010632,0.014632 -0.00451,0.022912 0.00844,0.011243 0.1045888,0.081112 0.089461,0.065009 0.106105,0.071994 0.011856,0.00478 0.022488,-0.00985 0.021872,-0.030099 0.062994,-0.092842 0.041426,-0.063161 0.063602,-0.093678 0.00942,-0.012959 0.019868,-0.00536 0.012123,0.00881 0.035877,0.027987 0.024171,0.019481 0.036712,0.028595 0.012123,0.00881 0.037699,0.025479 0.025994,0.016973 0.038535,0.026086 0.012123,0.00881 0.00483,0.018843 -0.034935,0.048075 -0.1095928,0.1420232 -0.07424,0.094252 -0.1094785,0.142745 -0.033112,0.045567 -0.095156,0.139738 -0.061626,0.094475 -0.094434,0.1396237 z"
         id="path5039" /></g><g
       aria-label="OAUTH"
       transform="rotate(180,-0.08875256,5.024693)"
       id="text2941-3-8"
       style="font-weight:bold;font-size:1.05833px;line-height:4;font-family:'Berlin Sans FB Demi';-inkscape-font-specification:'Berlin Sans FB Demi Bold';text-align:center;letter-spacing:0.529167px;text-anchor:middle;fill:#b3b3b3;stroke-width:0.15;stroke-linecap:round"><path
         d="m -7.2664178,1.6746566 q 0.099039,0.1272253 0.084871,0.2764349 -0.014847,0.1517027 -0.1416647,0.2504247 -0.1260021,0.098087 -0.2777536,0.074765 -0.1485333,-0.022553 -0.2469379,-0.1489632 -0.098722,-0.1268176 -0.084463,-0.2767524 0.014303,-0.1532435 0.1403046,-0.2513306 0.1251865,-0.097452 0.2776633,-0.074039 0.1498934,0.023459 0.2479805,0.1494614 z m -0.155181,0.1194919 q -0.047615,-0.061166 -0.1180531,-0.075096 -0.073656,-0.014699 -0.1340068,0.032281 -0.057496,0.044758 -0.06127,0.1223529 -0.00382,0.075011 0.041572,0.133323 0.048567,0.062389 0.1172375,0.075731 0.072296,0.013793 0.13387,-0.03414 0.057496,-0.044758 0.061996,-0.1222626 0.00405,-0.073878 -0.041345,-0.13219 z"
         id="path5094" /><path
         d="m -5.8536592,1.4653967 q 0.00285,0.00885 -0.00833,0.01626 -0.013486,0.00869 -0.090212,0.033428 -0.070332,0.022675 -0.091766,0.025242 -0.017832,0.00195 -0.028284,-0.015314 -0.039556,-0.065433 -0.050486,-0.067338 -0.00898,-9.058e-4 -0.1329214,0.039053 -0.083612,0.026956 -0.087595,0.033127 -0.00582,0.010565 -0.00172,0.058652 0.00382,0.043835 -0.00835,0.051559 -0.015454,0.00933 -0.1108695,0.040088 -0.075251,0.024261 -0.079849,0.01 -0.00412,-0.012788 0.00983,-0.3501178 0.01537,-0.36493453 0.015233,-0.40072545 -1.236e-4,-0.0205925 0.00775,-0.0231296 0.01328,-0.004281 0.041615,-0.0107019 0.028827,-0.006579 0.042599,-0.011019 0.013279,-0.004281 0.038379,-0.0140023 0.025433,-0.0103714 0.038221,-0.0144941 0.00934,-0.003013 0.022447,0.0106807 0.040749,0.0438728 0.2548324,0.30877022 0.2152091,0.2667062 0.2194904,0.2799857 z M -6.3468234,1.1297599 q -0.00335,0.024971 -0.00463,0.1051985 -0.00182,0.085289 0.00246,0.098568 0.00285,0.00885 0.032681,3.227e-4 0.015564,-0.00393 0.050484,-0.01519 0.032461,-0.010465 0.033367,-0.019445 1.908e-4,-0.00278 -0.00124,-0.0072 -0.00523,-0.016231 -0.051483,-0.08222 -0.044966,-0.063688 -0.061637,-0.080032 z"
         id="path5096" /><path
         d="m -4.6528236,1.1428824 q -1.424e-4,0.1317745 -0.031717,0.1797993 -0.057972,0.087787 -0.2889652,0.087537 -0.104386,-1.129e-4 -0.1606958,-0.016193 -0.089889,-0.025935 -0.1166816,-0.098828 -0.013397,-0.035671 -0.013298,-0.1271381 2.29e-5,-0.021187 0.00162,-0.063043 0.0016,-0.041856 0.00162,-0.062527 6.48e-5,-0.0599444 -0.00549,-0.17983948 -0.00555,-0.11989502 -0.00549,-0.1793227 1.34e-5,-0.0124023 0.010866,-0.0123906 0.031523,3.408e-5 0.095081,0.002687 0.064076,0.002653 0.095598,0.002687 0.012919,1.397e-5 0.012907,0.0113827 -7.38e-5,0.0682126 -0.00487,0.20463289 -0.00428,0.13590403 -0.00435,0.20411673 -8.78e-5,0.081132 0.016935,0.109572 0.022696,0.038782 0.095042,0.03886 0.1059363,1.146e-4 0.1060474,-0.1027212 8.11e-5,-0.074931 -0.00337,-0.22479553 -0.00346,-0.14986502 -0.00337,-0.22479557 1.74e-5,-0.0160196 0.012936,-0.0160057 0.030489,3.296e-5 0.091986,-0.002484 0.061498,-0.002517 0.091986,-0.002484 0.014986,1.62e-5 0.014973,0.0124185 -6.42e-5,0.0594277 -0.00536,0.17931097 -0.00478,0.11988385 -0.00485,0.17982831 -1.78e-5,0.016536 4.626e-4,0.050126 4.81e-4,0.033073 4.631e-4,0.04961 z"
         id="path5098" /><path
         d="m -3.3810929,1.1055356 q -0.00304,0.00988 -0.013903,0.00654 -0.018771,-0.00577 -0.1464093,-0.053093 -0.041362,0.1240645 -0.056539,0.1734618 -0.017909,0.058289 -0.049433,0.1767263 -0.03103,0.1185893 -0.048939,0.1768781 -0.00288,0.00939 -0.00809,0.01049 -0.00179,5.326e-4 -0.01459,-0.00178 -0.030852,-0.00515 -0.088153,-0.02276 -0.063722,-0.019578 -0.088195,-0.031422 -0.013072,-0.00672 -0.00913,-0.019563 0.017909,-0.058289 0.058667,-0.1733487 0.040758,-0.1150599 0.058667,-0.1733487 0.011838,-0.03853 0.048865,-0.1731168 -0.10183,-0.0204747 -0.1606128,-0.0385355 -0.0079,-0.002428 -0.00639,-0.007368 0.00197,-0.006422 0.018602,-0.0359111 0.018527,-0.0321498 0.021792,-0.0392558 0.00862,-0.0227614 0.017724,-0.045371 0.014841,-0.0359856 0.023238,-0.0334055 9.88e-4,3.0355e-4 0.00676,0.002619 0.076836,0.0349604 0.2334258,0.0830718 0.044458,0.0136594 0.1668827,0.0410025 0.065734,0.0147905 0.066228,0.0149423 0.00988,0.003035 0.010906,0.004973 0.00118,0.001443 -9.078e-4,0.009993 -0.0041,0.0133373 -0.012371,0.0367444 -0.00903,0.0258771 -0.012371,0.0367445 -0.00379,0.012349 -0.00827,0.037465 -0.00383,0.024773 -0.00747,0.036628 z"
         id="path5100" /><path
         d="m -2.4447924,2.2911942 q -0.00638,0.00878 -0.011661,0.00814 -0.00258,3.9e-5 -0.013224,-0.00642 -0.027323,-0.016022 -0.073726,-0.049742 -0.065633,-0.047694 -0.075515,-0.058708 -0.00946,-0.01071 -0.00309,-0.019489 0.023999,-0.033025 0.074923,-0.09695 0.051646,-0.064039 0.075645,-0.097064 0.011848,-0.016304 0.00447,-0.025495 -0.011783,-0.013673 -0.098736,-0.07686 -0.087371,-0.06349 -0.1044328,-0.070779 -0.010716,-0.00459 -0.022867,0.012129 -0.023695,0.032607 -0.068995,0.099341 -0.044996,0.066316 -0.068691,0.098923 -0.00911,0.012541 -0.02192,0.00643 -0.0152,-0.00721 -0.080415,-0.054603 -0.056436,-0.041011 -0.070081,-0.054759 -0.010604,-0.0109 -0.00271,-0.021769 0.032808,-0.045149 0.1032134,-0.1332443 0.070823,-0.087792 0.1039352,-0.1333586 0.035239,-0.048493 0.1015357,-0.1485169 0.066601,-0.1004419 0.1018395,-0.1489349 0.00668,-0.0092 0.015462,-0.00282 0.012959,0.00942 0.037967,0.029506 0.025425,0.020392 0.038385,0.02981 0.013377,0.00972 0.041044,0.027909 0.028084,0.018492 0.041462,0.028213 0.00711,0.00516 0.00164,0.012689 -0.022784,0.031353 -0.072949,0.090718 -0.049862,0.058947 -0.072646,0.0903 -0.010632,0.014632 -0.00451,0.022912 0.00844,0.011243 0.1045888,0.081112 0.089461,0.065009 0.106105,0.071994 0.011856,0.00478 0.022488,-0.00985 0.021872,-0.030099 0.062994,-0.092842 0.041426,-0.063161 0.063602,-0.093678 0.00942,-0.012959 0.019868,-0.00536 0.012123,0.00881 0.035877,0.027987 0.024171,0.019481 0.036712,0.028595 0.012123,0.00881 0.037699,0.025479 0.025994,0.016973 0.038535,0.026086 0.012123,0.00881 0.00483,0.018843 -0.034935,0.048075 -0.1095928,0.1420232 -0.07424,0.094252 -0.1094785,0.142745 -0.033112,0.045567 -0.095156,0.139738 -0.061626,0.094475 -0.094434,0.1396237 z"
         id="path5102" /></g><path
       style="opacity:0.309456;fill:none;stroke:none;stroke-width:0.15;stroke-linecap:round;stroke-dasharray:none"
       d="m -8.2029884,3.1955755 c 1.322962,-2.38613134 5.3138048,-2.52303978 6.6309069,0.338999"
       id="path4000"
       sodipodi:nodetypes="cc" /></g></svg>
