<?xml version="1.0" encoding="UTF-8" standalone="no"?>
<!-- Created with Inkscape (http://www.inkscape.org/) -->

<svg
   width="10mm"
   height="10mm"
   viewBox="0 0 10 10"
   version="1.1"
   id="svg5"
   xml:space="preserve"
   inkscape:version="1.3.2 (091e20e, 2023-11-25, custom)"
   sodipodi:docname="attribute.svg"
   xmlns:inkscape="http://www.inkscape.org/namespaces/inkscape"
   xmlns:sodipodi="http://sodipodi.sourceforge.net/DTD/sodipodi-0.dtd"
   xmlns="http://www.w3.org/2000/svg"
   xmlns:svg="http://www.w3.org/2000/svg"><sodipodi:namedview
     id="namedview7"
     pagecolor="#ffffff"
     bordercolor="#000000"
     borderopacity="0.25"
     inkscape:pageshadow="2"
     inkscape:pageopacity="0.0"
     inkscape:pagecheckerboard="0"
     inkscape:deskcolor="#d1d1d1"
     inkscape:document-units="mm"
     showgrid="false"
     inkscape:zoom="8.0260523"
     inkscape:cx="27.659924"
     inkscape:cy="20.620349"
     inkscape:window-width="1600"
     inkscape:window-height="829"
     inkscape:window-x="2552"
     inkscape:window-y="78"
     inkscape:window-maximized="1"
     inkscape:current-layer="layer1"
     inkscape:showpageshadow="2" /><defs
     id="defs2" /><g
     inkscape:label="Capa 1"
     inkscape:groupmode="layer"
     id="layer1"><rect
       style="fill:#cccccc;fill-opacity:1;stroke:#4d4d4d;stroke-width:0.999998;stroke-linecap:round;stroke-linejoin:round;stroke-dasharray:none;stroke-opacity:1"
       id="rect1"
       width="9.0000019"
       height="9.0000019"
       x="0.49999905"
       y="0.49999899"
       ry="1.1537948"
       rx="1.1537948" /><path
       id="rect441-4"
       style="fill:#cccccc;stroke:#4d4d4d;stroke-width:0.661;stroke-linecap:round;stroke-linejoin:round;stroke-dasharray:none"
       d="M 4.3947096,2.6055386 H 8.1856717 M 3.1306875,1.9777942 c 0.3016212,0.3014896 0.3018137,0.790381 4.3e-4,1.092108 -0.301656,0.3017843 -0.7908729,0.3017852 -1.09253,2e-6 -0.3017851,-0.3016568 -0.3017851,-0.7908752 0,-1.092532 0.3017239,-0.3013805 0.7906091,-0.3011916 1.0921,4.22e-4 z"
       sodipodi:nodetypes="ccccccc" /><path
       id="rect441-4-9"
       style="fill:#cccccc;stroke:#4d4d4d;stroke-width:0.661;stroke-linecap:round;stroke-linejoin:round;stroke-dasharray:none"
       d="M 4.3947098,5.1323762 H 8.1856719 M 3.1306877,4.5046318 c 0.3016212,0.3014896 0.3018137,0.790381 4.3e-4,1.092108 -0.301656,0.3017843 -0.7908729,0.3017852 -1.0925304,2e-6 -0.301785,-0.3016568 -0.301785,-0.7908752 0,-1.092532 0.3017243,-0.3013805 0.7906095,-0.3011916 1.0921004,4.22e-4 z"
       sodipodi:nodetypes="ccccccc" /><path
       id="rect441-4-4"
       style="fill:#cccccc;stroke:#4d4d4d;stroke-width:0.661;stroke-linecap:round;stroke-linejoin:round;stroke-dasharray:none"
       d="M 4.3947096,7.6592139 H 8.1856717 M 3.1306875,7.0314695 c 0.3016212,0.3014896 0.3018137,0.790381 4.3e-4,1.092108 -0.301656,0.3017843 -0.7908729,0.3017852 -1.09253,2e-6 -0.3017851,-0.3016568 -0.3017851,-0.7908752 0,-1.092532 0.3017239,-0.3013805 0.7906091,-0.3011916 1.0921,4.22e-4 z"
       sodipodi:nodetypes="ccccccc" /></g></svg>
