<?xml version="1.0" encoding="UTF-8" standalone="no"?>
<!-- Created with Inkscape (http://www.inkscape.org/) -->

<svg
   width="10mm"
   height="10mm"
   viewBox="0 0 10 10"
   version="1.1"
   id="svg5"
   xml:space="preserve"
   inkscape:version="1.3.2 (091e20e, 2023-11-25, custom)"
   sodipodi:docname="glossary-categry.svg"
   xmlns:inkscape="http://www.inkscape.org/namespaces/inkscape"
   xmlns:sodipodi="http://sodipodi.sourceforge.net/DTD/sodipodi-0.dtd"
   xmlns="http://www.w3.org/2000/svg"
   xmlns:svg="http://www.w3.org/2000/svg"><sodipodi:namedview
     id="namedview7"
     pagecolor="#ffffff"
     bordercolor="#000000"
     borderopacity="0.25"
     inkscape:pageshadow="2"
     inkscape:pageopacity="0.0"
     inkscape:pagecheckerboard="0"
     inkscape:deskcolor="#d1d1d1"
     inkscape:document-units="mm"
     showgrid="false"
     inkscape:zoom="11.350552"
     inkscape:cx="5.6384923"
     inkscape:cy="8.7660935"
     inkscape:window-width="1998"
     inkscape:window-height="1041"
     inkscape:window-x="365"
     inkscape:window-y="0"
     inkscape:window-maximized="0"
     inkscape:current-layer="layer1"
     inkscape:showpageshadow="2" /><defs
     id="defs2" /><g
     inkscape:label="Capa 1"
     inkscape:groupmode="layer"
     id="layer1"><path
       id="rect1-9-5"
       style="fill:#4d4d4d;stroke-width:0.499999"
       d="M 5.731205,0 H 7.0598849 V 2.4778457 L 6.395545,1.7225446 5.731205,2.4778457 Z"
       sodipodi:nodetypes="cccccc" /><path
       id="rect1-9-5-8"
       style="fill:#4d4d4d;stroke-width:0.499999"
       d="M 2.5492378,0 H 3.8779177 V 2.4778457 L 3.2135778,1.7225446 2.5492378,2.4778457 Z"
       sodipodi:nodetypes="cccccc" /><path
       id="rect2132-0-6"
       style="fill:#cccccc;stroke:#4d4d4d;stroke-width:0.5;stroke-linecap:square;stroke-linejoin:round;stroke-dasharray:none"
       d="m 0.25,2.1853639 c 1.8614687,-1.0575548 3.2990594,-1.0575548 4.7499998,0 v 7.56466 C 3.4865955,8.6677878 1.8994796,8.7263302 0.25,9.7500239 Z"
       sodipodi:nodetypes="ccccc" /><path
       id="rect2132-0-1-6"
       style="fill:#cccccc;stroke:#4d4d4d;stroke-width:0.5;stroke-linecap:square;stroke-linejoin:round;stroke-dasharray:none"
       d="m 5,2.1853641 c 1.8614687,-1.0575551 3.2990594,-1.0575551 4.7500002,0 V 9.7500237 C 8.2365956,8.6677883 6.6494796,8.7263308 5,9.7500237 Z"
       sodipodi:nodetypes="ccccc" /><path
       style="font-weight:bold;font-size:5.09327px;font-family:Sans;-inkscape-font-specification:'Sans Bold';text-align:center;text-anchor:middle;fill:#4d4d4d;stroke-width:0.500001"
       d="M 3.6623259,7.7999167 3.3974759,6.9340609 H 2.0732258 L 1.8083757,7.7999167 H 0.97817274 L 2.2616767,4.1480423 h 0.942255 L 4.4925289,7.7999167 Z M 2.9492682,5.4417328 Q 2.9238018,5.3551472 2.8830557,5.2227222 2.8423095,5.0902972 2.8015633,4.9527789 2.7608172,4.8152606 2.7353508,4.7133952 2.7098845,4.8152606 2.6640451,4.9680587 2.6232989,5.1157635 2.5825527,5.2532818 2.5468998,5.3857069 2.5265268,5.4417328 L 2.26677,6.2872156 H 3.2141182 Z M 8.6435477,7.7999167 H 5.9390214 V 7.3007763 L 7.6809197,4.7999808 H 5.9848608 V 4.1633221 H 8.5977082 V 4.6624625 L 6.85581,7.163258 h 1.7877377 z"
       id="text1"
       aria-label="A Z" /><path
       id="rect1-9"
       style="fill:#4d4d4d;stroke-width:0.499999"
       d="m 7.8555284,0 h 1.3286799 l 0,2.4778456 -0.6643399,-0.7553011 -0.66434,0.7553011 z"
       sodipodi:nodetypes="cccccc" /></g></svg>
