<?xml version="1.0" encoding="UTF-8" standalone="no"?>
<!-- Created with Inkscape (http://www.inkscape.org/) -->

<svg
   width="10mm"
   height="10mm"
   viewBox="0 0 10 10"
   version="1.1"
   id="svg5"
   xml:space="preserve"
   inkscape:version="1.2.2 (732a01da63, 2022-12-09)"
   sodipodi:docname="settings.svg"
   xmlns:inkscape="http://www.inkscape.org/namespaces/inkscape"
   xmlns:sodipodi="http://sodipodi.sourceforge.net/DTD/sodipodi-0.dtd"
   xmlns="http://www.w3.org/2000/svg"
   xmlns:svg="http://www.w3.org/2000/svg"><sodipodi:namedview
     id="namedview7"
     pagecolor="#ffffff"
     bordercolor="#000000"
     borderopacity="0.25"
     inkscape:pageshadow="2"
     inkscape:pageopacity="0.0"
     inkscape:pagecheckerboard="0"
     inkscape:deskcolor="#d1d1d1"
     inkscape:document-units="mm"
     showgrid="false"
     inkscape:zoom="11.350552"
     inkscape:cx="5.5944416"
     inkscape:cy="15.593955"
     inkscape:window-width="1350"
     inkscape:window-height="1041"
     inkscape:window-x="537"
     inkscape:window-y="56"
     inkscape:window-maximized="0"
     inkscape:current-layer="layer1"
     inkscape:showpageshadow="2" /><defs
     id="defs2"><inkscape:perspective
       sodipodi:type="inkscape:persp3d"
       inkscape:vp_x="0 : 5 : 1"
       inkscape:vp_y="0 : 1000 : 0"
       inkscape:vp_z="10 : 5 : 1"
       inkscape:persp3d-origin="5 : 3.3333333 : 1"
       id="perspective23884" /></defs><g
     inkscape:label="Capa 1"
     inkscape:groupmode="layer"
     id="layer1"><path
       id="path29635-1"
       style="fill:#cccccc;fill-opacity:1;stroke:#4d4d4d;stroke-width:0.661458;stroke-linecap:square;stroke-linejoin:round;stroke-dasharray:none;stroke-opacity:1"
       d="M 2.172409,1.2244 2.857144,2.410354 A 3.3633739,3.3632553 0 0 0 1.943911,3.600619 L 0.620975,3.246152 0.330722,4.329358 1.653142,4.683686 A 3.3633739,3.3632553 0 0 0 1.849248,6.171741 L 0.663252,6.856451 1.223917,7.827512 2.409913,7.142806 A 3.3633739,3.3632553 0 0 0 3.600596,8.056653 L 3.246252,9.379023 4.3295,9.66928 4.683978,8.34639 A 3.3633739,3.3632553 0 0 0 6.171433,8.150664 L 6.856169,9.336623 7.827597,8.775793 7.14286,7.589834 A 3.3633739,3.3632553 0 0 0 8.056417,6.399378 L 9.379355,6.753846 9.669278,5.670821 8.346859,5.316498 A 3.3633739,3.3632553 0 0 0 8.150755,3.828446 L 9.336751,3.143735 8.776086,2.17267 7.59009,2.85738 A 3.3633739,3.3632553 0 0 0 6.399268,1.944041 L 6.753748,0.621152 5.67083,0.33072 5.31635,1.653609 A 3.3633739,3.3632553 0 0 0 3.828572,1.84952 L 3.143837,0.663566 Z M 4.159355,3.543726 A 1.6816871,1.6816278 0 0 1 6.45649,4.159218 1.6816871,1.6816278 0 0 1 5.840975,6.456275 1.6816871,1.6816278 0 0 1 3.543513,5.840968 1.6816871,1.6816278 0 0 1 4.159355,3.543726 Z" /></g></svg>
