<?xml version="1.0" encoding="UTF-8" standalone="no"?>
<!-- Created with Inkscape (http://www.inkscape.org/) -->

<svg
   width="100mm"
   height="100mm"
   viewBox="0 0 100 100"
   version="1.1"
   id="svg1"
   xml:space="preserve"
   inkscape:version="1.3.2 (091e20e, 2023-11-25, custom)"
   sodipodi:docname="c.svg"
   xmlns:inkscape="http://www.inkscape.org/namespaces/inkscape"
   xmlns:sodipodi="http://sodipodi.sourceforge.net/DTD/sodipodi-0.dtd"
   xmlns="http://www.w3.org/2000/svg"
   xmlns:svg="http://www.w3.org/2000/svg"><sodipodi:namedview
     id="namedview1"
     pagecolor="#ffffff"
     bordercolor="#000000"
     borderopacity="0.25"
     inkscape:showpageshadow="2"
     inkscape:pageopacity="0.0"
     inkscape:pagecheckerboard="0"
     inkscape:deskcolor="#d1d1d1"
     inkscape:document-units="mm"
     inkscape:zoom="0.39874454"
     inkscape:cx="35.110199"
     inkscape:cy="440.13142"
     inkscape:window-width="1600"
     inkscape:window-height="829"
     inkscape:window-x="-8"
     inkscape:window-y="-8"
     inkscape:window-maximized="1"
     inkscape:current-layer="layer1" /><defs
     id="defs1" /><g
     inkscape:label="Capa 1"
     inkscape:groupmode="layer"
     id="layer1"><g
       id="g4"
       transform="matrix(1.0681818,0,0,1.0681818,36.76721,-22.879224)"
       style="stroke-width:0.936171"><path
         id="path3"
         style="opacity:1;fill:#669ad3;fill-opacity:1;stroke:none;stroke-width:0.702129;stroke-linecap:round"
         inkscape:transform-center-x="-6.9064728"
         inkscape:transform-center-y="1.4719279e-06"
         d="m 12.29589,21.418848 c -1.215715,6e-5 -2.4100133,0.312311 -3.4628374,0.905371 L 8.6485677,22.430672 -25.680086,42.250134 c -1.040019,0.615243 -1.907184,1.493287 -2.515092,2.546098 -0.607805,1.052869 -0.934937,2.243686 -0.947746,3.451986 v 39.851831 c 0.01281,1.208308 0.33994,2.399117 0.947746,3.451986 0.60791,1.052806 1.475075,1.930848 2.515092,2.546097 L 8.8330526,114.02405 c 1.052825,0.59306 2.2471234,0.90531 3.4628374,0.90537 1.215719,-6e-5 2.41001,-0.31231 3.462838,-0.90537 L 50.27135,94.098132 c 1.040018,-0.615248 1.907699,-1.493796 2.515609,-2.546614 0.607798,-1.052868 0.934419,-2.243171 0.947229,-3.451469 l 5.17e-4,-39.851831 c -0.0128,-1.208304 -0.33994,-2.399113 -0.947746,-3.451986 -0.607909,-1.052808 -1.475075,-1.930856 -2.515092,-2.546098 L 15.758728,22.324219 C 14.7059,21.731159 13.511605,21.418908 12.29589,21.418848 Z" /><path
         id="path3-1"
         style="fill:#024481;fill-opacity:1;stroke:none;stroke-width:0.702129;stroke-linecap:round"
         inkscape:transform-center-x="-6.9064728"
         inkscape:transform-center-y="-1.4780721e-06"
         d="m 12.480383,115.03587 c -1.21572,-6e-5 -2.41002,-0.31231 -3.4628404,-0.90537 l -0.18449,-0.10645 -34.3286496,-19.819462 c -1.04002,-0.615244 -1.90718,-1.493287 -2.515089,-2.546098 L 12.480373,68.280588 52.971446,91.65849 c -0.60791,1.052808 -1.47507,1.930856 -2.51509,2.546098 L 15.943213,114.1305 c -1.05282,0.59306 -2.24712,0.90531 -3.46283,0.90537 z"
         sodipodi:nodetypes="cccccccccc" /><path
         id="path4"
         style="opacity:1;fill:#ffffff;fill-opacity:1;stroke:none;stroke-width:0.702129;stroke-linecap:round"
         d="m 12.295629,39.905054 a 28.268957,28.268957 0 0 0 -28.268556,28.26908 28.268957,28.268957 0 0 0 28.268556,28.26908 28.268957,28.268957 0 0 0 28.26908,-28.26908 28.268957,28.268957 0 0 0 -28.26908,-28.26908 z m 0,14.07615 a 14.193128,14.193128 0 0 1 14.19345,14.19293 14.193128,14.193128 0 0 1 -14.19345,14.19293 14.193128,14.193128 0 0 1 -14.1929303,-14.19293 14.193128,14.193128 0 0 1 14.1929303,-14.19293 z" /><path
         id="path3-1-5"
         style="fill:#00599d;fill-opacity:1;stroke:none;stroke-width:0.702129;stroke-linecap:round"
         inkscape:transform-center-x="6.1957472"
         inkscape:transform-center-y="-0.13671048"
         d="m 52.971643,91.658221 -40.49127,-23.377633 40.4914,-23.377353 c 0.6078,1.05287 0.93463,2.242876 0.94744,3.451181 l -2.3e-4,39.852221 c -0.0128,1.208299 -0.33954,2.398718 -0.94734,3.451584 z"
         sodipodi:nodetypes="cccccc" /></g></g></svg>
