<?xml version="1.0" encoding="UTF-8" standalone="no"?>
<!-- Created with Inkscape (http://www.inkscape.org/) -->

<svg
   width="10mm"
   height="10mm"
   viewBox="0 0 10 10"
   version="1.1"
   id="svg5"
   xml:space="preserve"
   inkscape:version="1.2.2 (732a01da63, 2022-12-09)"
   sodipodi:docname="disabled.svg"
   xmlns:inkscape="http://www.inkscape.org/namespaces/inkscape"
   xmlns:sodipodi="http://sodipodi.sourceforge.net/DTD/sodipodi-0.dtd"
   xmlns="http://www.w3.org/2000/svg"
   xmlns:svg="http://www.w3.org/2000/svg"><sodipodi:namedview
     id="namedview7"
     pagecolor="#ffffff"
     bordercolor="#000000"
     borderopacity="0.25"
     inkscape:pageshadow="2"
     inkscape:pageopacity="0.0"
     inkscape:pagecheckerboard="0"
     inkscape:deskcolor="#d1d1d1"
     inkscape:document-units="mm"
     showgrid="false"
     inkscape:zoom="11.350552"
     inkscape:cx="17.752441"
     inkscape:cy="15.593955"
     inkscape:window-width="1600"
     inkscape:window-height="829"
     inkscape:window-x="-8"
     inkscape:window-y="-8"
     inkscape:window-maximized="1"
     inkscape:current-layer="layer1"
     inkscape:showpageshadow="2" /><defs
     id="defs2" /><g
     inkscape:label="Capa 1"
     inkscape:groupmode="layer"
     id="layer1"><path
       id="path1200-0"
       style="fill:#9a0000;fill-opacity:1;stroke:none;stroke-width:2;stroke-linecap:round;stroke-dasharray:none;stroke-opacity:1"
       d="m 1.464682,1.464317 a 5,5 0 0 0 -1e-6,7.071366 5,5 0 0 0 7.071002,-3.65e-4 5,5 0 0 0 0,-7.070637 5,5 0 0 0 -7.071001,-3.64e-4 z M 2.525459,2.525094 A 3.5,3.5 0 0 1 6.841654,2.024486 L 2.026678,6.839462 A 3.5,3.5 0 0 1 2.525459,2.525094 Z M 3.160538,7.973321 7.975514,3.158346 A 3.5,3.5 0 0 1 7.47527,7.474905 3.5,3.5 0 0 1 3.160538,7.973321 Z" /></g></svg>
