<?xml version="1.0" encoding="UTF-8" standalone="no"?>
<!-- Created with Inkscape (http://www.inkscape.org/) -->

<svg
   width="10mm"
   height="10mm"
   viewBox="0 0 10 10"
   version="1.1"
   id="svg5"
   xml:space="preserve"
   inkscape:version="1.2.2 (732a01da63, 2022-12-09)"
   sodipodi:docname="search.svg"
   xmlns:inkscape="http://www.inkscape.org/namespaces/inkscape"
   xmlns:sodipodi="http://sodipodi.sourceforge.net/DTD/sodipodi-0.dtd"
   xmlns="http://www.w3.org/2000/svg"
   xmlns:svg="http://www.w3.org/2000/svg"><sodipodi:namedview
     id="namedview7"
     pagecolor="#ffffff"
     bordercolor="#000000"
     borderopacity="0.25"
     inkscape:pageshadow="2"
     inkscape:pageopacity="0.0"
     inkscape:pagecheckerboard="0"
     inkscape:deskcolor="#d1d1d1"
     inkscape:document-units="mm"
     showgrid="false"
     inkscape:zoom="11.350552"
     inkscape:cx="11.937745"
     inkscape:cy="15.593955"
     inkscape:window-width="1600"
     inkscape:window-height="829"
     inkscape:window-x="-8"
     inkscape:window-y="-8"
     inkscape:window-maximized="1"
     inkscape:current-layer="layer1"
     inkscape:showpageshadow="2" /><defs
     id="defs2" /><g
     inkscape:label="Capa 1"
     inkscape:groupmode="layer"
     id="layer1"><path
       id="rect381-7-1"
       style="fill:#4d4d4d;stroke-width:0.1;stroke-linecap:round"
       d="M 6.0001975,4.7004658e-5 A 4,4 0 0 0 1.9999245,4.00032 4,4 0 0 0 2.3539085,5.638463 L 4.6495342e-5,7.993358 C 0.1397535,9.191071 0.6837735,9.984368 2.0056085,9.999953 L 4.3594705,7.645058 A 4,4 0 0 0 6.0001975,8.000076 4,4 0 0 0 9.9999535,4.00032 4,4 0 0 0 6.0001975,4.7004658e-5 Z m 0,1.500166995342 A 2.5,2.5 0 0 1 8.4997865,4.00032 2.5,2.5 0 0 1 6.0001975,6.500425 2.5,2.5 0 0 1 3.5000915,4.00032 2.5,2.5 0 0 1 6.0001975,1.500214 Z" /></g></svg>
