<?xml version="1.0" encoding="UTF-8" standalone="no"?>
<!-- Created with Inkscape (http://www.inkscape.org/) -->

<svg
   width="10mm"
   height="10mm"
   viewBox="0 0 10 10"
   version="1.1"
   id="svg5"
   xml:space="preserve"
   inkscape:version="1.2.2 (732a01da63, 2022-12-09)"
   sodipodi:docname="edit-password.svg"
   xmlns:inkscape="http://www.inkscape.org/namespaces/inkscape"
   xmlns:sodipodi="http://sodipodi.sourceforge.net/DTD/sodipodi-0.dtd"
   xmlns="http://www.w3.org/2000/svg"
   xmlns:svg="http://www.w3.org/2000/svg"><sodipodi:namedview
     id="namedview7"
     pagecolor="#ffffff"
     bordercolor="#000000"
     borderopacity="0.25"
     inkscape:pageshadow="2"
     inkscape:pageopacity="0.0"
     inkscape:pagecheckerboard="0"
     inkscape:deskcolor="#d1d1d1"
     inkscape:document-units="mm"
     showgrid="false"
     inkscape:zoom="11.350552"
     inkscape:cx="11.937745"
     inkscape:cy="15.593955"
     inkscape:window-width="2560"
     inkscape:window-height="1009"
     inkscape:window-x="-8"
     inkscape:window-y="-8"
     inkscape:window-maximized="1"
     inkscape:current-layer="layer1"
     inkscape:showpageshadow="2" /><defs
     id="defs2" /><g
     inkscape:label="Capa 1"
     inkscape:groupmode="layer"
     id="layer1"><path
       id="path1082-6-8"
       style="fill:#4d4d4d;fill-opacity:1;stroke:none;stroke-width:2.01801;stroke-linecap:round"
       d="M 2.9723513,2.3602105e-5 A 2.9725654,2.9725654 0 0 0 -7.875e-5,2.972452 2.9725654,2.9725654 0 0 0 2.9723513,5.9448802 2.9725654,2.9725654 0 0 0 4.2270612,5.6658276 l 0.22686,0.2263426 1.43763,-1.4376382 -0.22582,-0.2263427 A 2.9725654,2.9725654 0 0 0 5.9447812,2.972452 2.9725654,2.9725654 0 0 0 2.9723513,2.3602105e-5 Z m 0,1.340486597895 A 1.6319623,1.6319623 0 0 1 4.6042912,2.972452 1.6319623,1.6319623 0 0 1 2.9723513,4.6043937 1.6319623,1.6319623 0 0 1 1.3404112,2.972452 1.6319623,1.6319623 0 0 1 2.9723513,1.3405102 Z m 5.6384199,4.877222 c -0.63736,0.639396 -1.28185,1.272485 -1.92288,1.908927 l 1.8732701,1.873271 h 1.43867 v -1.437639 l -0.36587,-0.365869 0.0563,-0.77773 -0.20206,-0.221175 -0.63975,0.213424 -0.25787,-0.257866 0.0786,-0.886767 z M 8.7222813,2.581282 c -0.12999,0 -0.26,0.049809 -0.3596,0.1494599 l -0.7869401,0.78736 1.4880001,1.4886371 0.78693,-0.7873029 c 0.1992097,-0.1993068 0.1992097,-0.5202239 0,-0.71953 L 9.0818712,2.7307419 C 8.9822712,2.6310889 8.8522712,2.581282 8.7222813,2.581282 Z m -1.5135101,1.3039094 -3.82549,3.8273368 1.48795,1.488638 3.8255301,-3.8272813 z m -4.23356,4.2349318 -0.3897899,1.739674 c -0.0223,0.09971 0.0503,0.1596418 0.16274,0.134419 l 1.7156599,-0.38478 z" /></g></svg>
