<?xml version="1.0" encoding="UTF-8" standalone="no"?>
<!-- Created with Inkscape (http://www.inkscape.org/) -->

<svg
   width="10mm"
   height="10mm"
   viewBox="0 0 10 10"
   version="1.1"
   id="svg5"
   xml:space="preserve"
   inkscape:version="1.2.2 (732a01da63, 2022-12-09)"
   sodipodi:docname="site.svg"
   xmlns:inkscape="http://www.inkscape.org/namespaces/inkscape"
   xmlns:sodipodi="http://sodipodi.sourceforge.net/DTD/sodipodi-0.dtd"
   xmlns="http://www.w3.org/2000/svg"
   xmlns:svg="http://www.w3.org/2000/svg"><sodipodi:namedview
     id="namedview7"
     pagecolor="#ffffff"
     bordercolor="#000000"
     borderopacity="0.25"
     inkscape:pageshadow="2"
     inkscape:pageopacity="0.0"
     inkscape:pagecheckerboard="0"
     inkscape:deskcolor="#d1d1d1"
     inkscape:document-units="mm"
     showgrid="false"
     inkscape:zoom="11.350552"
     inkscape:cx="13.875977"
     inkscape:cy="15.770158"
     inkscape:window-width="1350"
     inkscape:window-height="1041"
     inkscape:window-x="1190"
     inkscape:window-y="42"
     inkscape:window-maximized="0"
     inkscape:current-layer="layer1"
     inkscape:showpageshadow="2" /><defs
     id="defs2" /><g
     inkscape:label="Capa 1"
     inkscape:groupmode="layer"
     id="layer1"><path
       id="path511-3-1-1-4-2-6"
       style="fill:#cccccc;stroke:#4d4d4d;stroke-width:0.661;stroke-linecap:round;stroke-linejoin:round;stroke-dasharray:none"
       d="m 0.33072,4.9999995 h 9.338214 m -4.669112,-4.66927 v 9.33854 m 2.500833,-4.66927 a 2.5008334,4.6692702 0 0 1 -2.500833,4.66927 2.5008334,4.6692702 0 0 1 -2.500833,-4.66927 2.5008334,4.6692702 0 0 1 2.500833,-4.66927 2.5008334,4.6692702 0 0 1 2.500833,4.66927 z m 1.276182,2.739303 C 7.899066,7.2669085 6.494846,6.9871535 4.999822,6.9868255 3.503129,6.9871905 2.097617,7.2675985 1.220174,7.7408845 m 0.003,-5.480188 c 0.877771,0.472395 2.281981,0.75215 3.777005,0.752479 1.496693,-3.65e-4 2.902215,-0.280774 3.779657,-0.754059 m 0.889444,2.740884 a 4.6691041,4.6692702 0 0 1 -4.669101,4.66927 4.6691041,4.6692702 0 0 1 -4.669102,-4.66927 4.6691041,4.6692702 0 0 1 4.669102,-4.66927 4.6691041,4.6692702 0 0 1 4.669101,4.66927 z" /></g></svg>
